<html>
<head>
<meta charset="UTF-8">
<meta name="viewport" content="width=device-width, initial-scale=1.0"/>

<style>
.comment
{
    padding-left: 20px;
    margin-top: 4px;
    margin-right: 4px;
    margin-bottom: 4px;
    border: 2px #000 solid;
}
.submission
{
    border: 4px #00f solid;
    padding-left: 20px;
}
.hidden
{
    display: none;
}
</style>
</head>
<body><div class="submission" id="t3_6glg2y">
    <p class="userinfo">
        <a href="https://www.reddit.com/u/V2atX">V2atX</a>
        <span class="score"> | 69 points</span>
        <span class="timestamp"> | Jun 11 2017 13:46:36</span>
    </p>
    <strong>[TV] Rick and Morty S02 [1080p] BluRay FLAC [x264] [6.03GB]</strong>
    <p><p><a href="http://www.imdb.com/title/tt2861424/">Rick and Morty</a></p>
<p>Video: AVC H.264 @ 2041 - 4019 kb/s (2572 kb/s average) (CRF20, Animation Preset)<br>
Audio: FLAC 5.1 @ 1130 - 1313 kb/s (1238 kb/s average) (Dolby TrueHD source was 24-bit, which I reduced to 16-bit for a better filesize)<br>
Subs: UTF-8, both for HI (SDH) and non HI (Full)   </p>
<p>Links protected by captcha: http://links.snahp.it/549RaMS02</p>
<p>Mirror on 1fichier included! Register a free account for faster downloading.<br>
I suggest using <a href="https://board.jdownloader.org/showthread.php?t=54725">JDownloader 2 for easier downloading.</a> (Copy + paste the link inside, as the redirect is broken.)</p>
<p>Complete MediaInfo of a relatively average sized episode:</p>
<pre><code>General
Unique ID                                : 215958562415308350995864010084794811972 (0xA2781B30983E0586B2B548206EF8C644)
Complete name                            : Rick and Morty - S02E06 - The Ricks Must Be Crazy.mkv
Format                                   : Matroska
Format version                           : Version 4 / Version 2
File size                                : 639 MiB
Duration                                 : 22 min 23 s
Overall bit rate mode                    : Variable
Overall bit rate                         : 3 991 kb/s
Encoded date                             : UTC 2017-06-11 03:58:57
Writing application                      : mkvmerge v10.0.0 ('To Drown In You') 64bit
Writing library                          : libebml v1.3.4 + libmatroska v1.4.5

Video
ID                                       : 1
Format                                   : AVC
Format/Info                              : Advanced Video Codec
Format profile                           : High@L4.1
Format settings, CABAC                   : Yes
Format settings, ReFrames                : 4 frames
Codec ID                                 : V_MPEG4/ISO/AVC
Duration                                 : 22 min 23 s
Bit rate                                 : 2 724 kb/s
Width                                    : 1 920 pixels
Height                                   : 1 080 pixels
Display aspect ratio                     : 16:9
Frame rate mode                          : Variable
Frame rate                               : 23.976 FPS
Color space                              : YUV
Chroma subsampling                       : 4:2:0
Bit depth                                : 8 bits
Scan type                                : Progressive
Bits/(Pixel*Frame)                       : 0.055
Stream size                              : 436 MiB (68%)
Writing library                          : x264 core 142 r2479 dd79a61
Encoding settings                        : cabac=1 / ref=4 / deblock=1:1:1 / analyse=0x3:0x133 / me=umh / subme=10 / psy=1 / psy_rd=0.40:0.00 / mixed_ref=1 / me_range=24 / chroma_me=1 / trellis=2 / 8x8dct=1 / cqm=0 / deadzone=21,11 / fast_pskip=1 / chroma_qp_offset=-2 / threads=12 / lookahead_threads=3 / sliced_threads=0 / nr=0 / decimate=1 / interlaced=0 / bluray_compat=0 / constrained_intra=0 / bframes=10 / b_pyramid=2 / b_adapt=2 / b_bias=0 / direct=3 / weightb=1 / open_gop=0 / weightp=2 / keyint=240 / keyint_min=24 / scenecut=40 / intra_refresh=0 / rc_lookahead=60 / rc=crf / mbtree=1 / crf=20.0 / qcomp=0.60 / qpmin=0 / qpmax=69 / qpstep=4 / vbv_maxrate=62500 / vbv_bufsize=78125 / crf_max=0.0 / nal_hrd=none / filler=0 / ip_ratio=1.40 / aq=1:0.60
Default                                  : Yes
Forced                                   : No
Color range                              : Limited
Color primaries                          : BT.709
Transfer characteristics                 : BT.709
Matrix coefficients                      : BT.709

Audio
ID                                       : 2
Format                                   : FLAC
Format/Info                              : Free Lossless Audio Codec
Codec ID                                 : A_FLAC
Duration                                 : 22 min 23 s
Bit rate mode                            : Variable
Bit rate                                 : 1 265 kb/s
Channel(s)                               : 6 channels
Channel positions                        : Front: L C R, Side: L R, LFE
Sampling rate                            : 48.0 kHz
Frame rate                               : 11.719 FPS (4096 spf)
Bit depth                                : 16 bits
Delay relative to video                  : -88 ms
Stream size                              : 203 MiB (32%)
Writing library                          : libFLAC 1.2.1 (UTC 2007-09-17)
Language                                 : English
Default                                  : Yes
Forced                                   : No

Text #1
ID                                       : 3
Format                                   : UTF-8
Codec ID                                 : S_TEXT/UTF8
Codec ID/Info                            : UTF-8 Plain Text
Duration                                 : 22 min 16 s
Bit rate                                 : 107 b/s
Count of elements                        : 534
Stream size                              : 17.5 KiB (0%)
Title                                    : Full
Language                                 : English
Default                                  : No
Forced                                   : No

Text #2
ID                                       : 4
Format                                   : UTF-8
Codec ID                                 : S_TEXT/UTF8
Codec ID/Info                            : UTF-8 Plain Text
Duration                                 : 22 min 16 s
Bit rate                                 : 113 b/s
Count of elements                        : 562
Stream size                              : 18.6 KiB (0%)
Title                                    : SDH
Language                                 : English
Default                                  : No
Forced                                   : No

Menu
00:00:00.000                             : :Chapter 1
00:01:45.990                             : :Chapter 2
00:02:17.814                             : :Chapter 3
00:12:22.376                             : :Chapter 4
00:21:27.170                             : :Chapter 5
00:21:58.243                             : :Chapter 6
</code></pre></p>
    <p class="toolbar">
        <a href="https://www.reddit.com/r/megalinks/comments/6glg2y">permalink</a>
    </p>
</div>
<div class="comment" id="t1_dirbuhx">
    <p class="userinfo">
        <a
        class="toggle_hide_button"
        href="javascript:void(0)"
        onclick="toggle_collapse(this.parentElement.parentElement)">[-]
        </a>
        <a href="https://www.reddit.com/u/dosemeele">dosemeele</a>
        <span class="score"> | 3 points</span>
        <span class="timestamp"> | Jun 11 2017 16:27:31</span>
    </p>
    <div class="collapsible">
        <p>Thank you!</p>
        <p class="toolbar">
            <a href="https://www.reddit.com/r/megalinks/comments/6glg2y/_/dirbuhx">permalink</a>
        </p>
        
    </div>
</div>

<div class="comment" id="t1_dis37js">
    <p class="userinfo">
        <a
        class="toggle_hide_button"
        href="javascript:void(0)"
        onclick="toggle_collapse(this.parentElement.parentElement)">[-]
        </a>
        <a href="https://www.reddit.com/u/Kriegan">Kriegan</a>
        <span class="score"> | 2 points</span>
        <span class="timestamp"> | Jun 12 2017 02:42:07</span>
    </p>
    <div class="collapsible">
        <p>Thanks a lot! Glad it wasn't a 6GB zip. </p>
        <p class="toolbar">
            <a href="https://www.reddit.com/r/megalinks/comments/6glg2y/_/dis37js">permalink</a>
        </p>
        
    </div>
</div>

<div class="comment" id="t1_discrfq">
    <p class="userinfo">
        <a
        class="toggle_hide_button"
        href="javascript:void(0)"
        onclick="toggle_collapse(this.parentElement.parentElement)">[-]
        </a>
        <a href="https://www.reddit.com/u/WaifuKenny">WaifuKenny</a>
        <span class="score"> | 2 points</span>
        <span class="timestamp"> | Jun 12 2017 07:30:27</span>
    </p>
    <div class="collapsible">
        <p>my fav show,, thanks for uploading!</p>
        <p class="toolbar">
            <a href="https://www.reddit.com/r/megalinks/comments/6glg2y/_/discrfq">permalink</a>
        </p>
        
    </div>
</div>

<div class="comment" id="t1_dkmj5y8">
    <p class="userinfo">
        <a
        class="toggle_hide_button"
        href="javascript:void(0)"
        onclick="toggle_collapse(this.parentElement.parentElement)">[-]
        </a>
        <a href="https://www.reddit.com/u/uberknarf">uberknarf</a>
        <span class="score"> | 2 points</span>
        <span class="timestamp"> | Jul 23 2017 23:25:22</span>
    </p>
    <div class="collapsible">
        <p>Incredible U/L... thank you!</p>
        <p class="toolbar">
            <a href="https://www.reddit.com/r/megalinks/comments/6glg2y/_/dkmj5y8">permalink</a>
        </p>
        
    </div>
</div>
</body>

<script>
function toggle_collapse(comment_div)
{
    var button = comment_div.getElementsByClassName("toggle_hide_button")[0];
    var collapsible = comment_div.getElementsByClassName("collapsible")[0];
    if (collapsible.classList.contains("hidden"))
    {
        collapsible.classList.remove("hidden");
        button.innerText = "[-]";
    }
    else
    {
        collapsible.classList.add("hidden");
        button.innerText = "[+]";
    }
}
</script>
</html>
